General
Complete name                            : ../.././Samples/audio_codec_problem.wmv
Format                                   : Windows Media
File size                                : 1 007 KiB
Duration                                 : 22 s 670 ms
Overall bit rate mode                    : Constant
Overall bit rate                         : 364 kb/s
Maximum Overall bit rate                 : 358 kb/s
Movie name                               : TCTV26 - Tartalomjegyzék
Performer                                : TotalCar
Encoded date                             : UTC 2003-03-02 16:29:57.673
Copyright                                : www.totalcar.hu

Video
ID                                       : 2
Format                                   : WMV1
Codec ID                                 : WMV1
Codec ID/Info                            : Windows Media Video 7
Description of the codec                 : Windows Media Video V7
Duration                                 : 22 s 638 ms
Bit rate mode                            : Constant
Bit rate                                 : 319 kb/s
Width                                    : 320 pixels
Height                                   : 240 pixels
Display aspect ratio                     : 4:3
Frame rate                               : 14.975 FPS
Nominal frame rate                       : 24.000 FPS
Bit depth                                : 8 bits
Bits/(Pixel*Frame)                       : 0.277
Stream size                              : 882 KiB (88%)
Language                                 : Hungarian

Audio
ID                                       : 1
Format                                   : WMA
Format version                           : Version 2
Codec ID                                 : 161
Codec ID/Info                            : Windows Media Audio
Description of the codec                 : Windows Media Audio 9 -  22 kbps, 22 kHz, stereo (A/V) 1-pass CBR
Duration                                 : 22 s 670 ms
Bit rate mode                            : Constant
Bit rate                                 : 22.0 kb/s
Channel(s)                               : 2 channels
Sampling rate                            : 22.05 kHz
Bit depth                                : 16 bits
Stream size                              : 60.9 KiB (6%)
Language                                 : Hungarian


General
Complete name                            : ../.././Samples/audio_codec_problem.wmv
Format                                   : Windows Media
File size                                : 1 007 KiB
Duration                                 : 22 s 670 ms
Overall bit rate mode                    : Constant
Overall bit rate                         : 364 kb/s
Maximum Overall bit rate                 : 358 kb/s
Movie name                               : TCTV26 - Tartalomjegyzék
Performer                                : TotalCar
Encoded date                             : UTC 2003-03-02 16:29:57.673
Copyright                                : www.totalcar.hu

Video
ID                                       : 2
Format                                   : WMV1
Codec ID                                 : WMV1
Codec ID/Info                            : Windows Media Video 7
Description of the codec                 : Windows Media Video V7
Duration                                 : 22 s 638 ms
Bit rate mode                            : Constant
Bit rate                                 : 319 kb/s
Width                                    : 320 pixels
Height                                   : 240 pixels
Display aspect ratio                     : 4:3
Frame rate                               : 14.975 FPS
Nominal frame rate                       : 24.000 FPS
Bit depth                                : 8 bits
Bits/(Pixel*Frame)                       : 0.277
Stream size                              : 882 KiB (88%)
Language                                 : Hungarian

Audio
ID                                       : 1
Format                                   : WMA
Format version                           : Version 2
Codec ID                                 : 161
Codec ID/Info                            : Windows Media Audio
Description of the codec                 : Windows Media Audio 9 -  22 kbps, 22 kHz, stereo (A/V) 1-pass CBR
Duration                                 : 22 s 670 ms
Bit rate mode                            : Constant
Bit rate                                 : 22.0 kb/s
Channel(s)                               : 2 channels
Sampling rate                            : 22.05 kHz
Bit depth                                : 16 bits
Stream size                              : 60.9 KiB (6%)
Language                                 : Hungarian


